<?xml version="1.0" encoding="utf-8"?>
<!-- Generator: Adobe Illustrator 17.0.0, SVG Export Plug-In . SVG Version: 6.00 Build 0)  -->
<!DOCTYPE svg PUBLIC "-//W3C//DTD SVG 1.1//EN" "http://www.w3.org/Graphics/SVG/1.1/DTD/svg11.dtd">
<svg version="1.1" id="Layer_1" xmlns="http://www.w3.org/2000/svg" xmlns:xlink="http://www.w3.org/1999/xlink" x="0px" y="0px"
	 width="320px" height="155.992px" viewBox="0 0 314.67 155.992" enable-background="new 0 0 314.67 155.992"
	 xml:space="preserve">
<g>
	<path fill="#B64326" d="M13.142,32.48v-4.465H25.06l0.668,5.52c1.078-1.945,2.408-3.468,3.99-4.57
		c1.582-1.102,3.393-1.652,5.432-1.652c0.539,0,1.095,0.041,1.67,0.123c0.574,0.083,1.014,0.17,1.318,0.264l-0.914,6.434
		l-3.938-0.211c-1.828,0-3.363,0.428-4.605,1.283c-1.243,0.856-2.203,2.057-2.883,3.604v21.832l5.73,0.984v4.43H13.142v-4.43
		l5.73-0.984V33.465L13.142,32.48z"/>
	<path fill="#B64326" d="M70.131,60.43c-1.195,2.039-2.737,3.609-4.623,4.711c-1.887,1.102-4.061,1.652-6.521,1.652
		c-4.125,0-7.348-1.324-9.668-3.973c-2.32-2.648-3.48-6.773-3.48-12.375v-16.98l-4.359-0.984v-4.465h4.359h6.926v22.5
		c0,4.055,0.598,6.844,1.793,8.367c1.195,1.524,3.059,2.285,5.59,2.285c2.461,0,4.494-0.498,6.1-1.494
		c1.605-0.996,2.818-2.408,3.639-4.236V33.465l-5.098-0.984v-4.465h5.098h6.926v32.625l4.359,0.984v4.43H70.588L70.131,60.43z"/>
	<path fill="#B64326" d="M115.764,39.969h-5.203l-1.125-4.57c-0.844-0.796-1.904-1.436-3.182-1.916
		c-1.278-0.48-2.725-0.721-4.342-0.721c-2.461,0-4.289,0.54-5.484,1.617c-1.195,1.078-1.793,2.379-1.793,3.902
		c0,1.5,0.527,2.684,1.582,3.551c1.055,0.867,3.199,1.641,6.434,2.32c4.804,1.032,8.379,2.432,10.723,4.201
		c2.343,1.77,3.516,4.143,3.516,7.119c0,3.375-1.366,6.105-4.096,8.191c-2.73,2.086-6.299,3.129-10.705,3.129
		c-2.883,0-5.473-0.334-7.77-1.002c-2.297-0.668-4.348-1.635-6.152-2.9l-0.035-8.684h5.203l1.301,5.098
		c0.796,0.727,1.881,1.254,3.252,1.582c1.371,0.329,2.771,0.492,4.201,0.492c2.461,0,4.389-0.498,5.783-1.494
		c1.394-0.996,2.092-2.303,2.092-3.92c0-1.523-0.58-2.777-1.74-3.762s-3.357-1.84-6.592-2.566
		c-4.618-1.007-8.098-2.378-10.441-4.113c-2.344-1.734-3.516-4.078-3.516-7.031c0-3.094,1.318-5.73,3.955-7.91
		s6.064-3.27,10.283-3.27c2.883,0,5.472,0.375,7.77,1.125c2.297,0.75,4.207,1.793,5.73,3.129L115.764,39.969z"/>
	<path fill="#B64326" d="M135.451,18.84v9.176h7.207v5.133h-7.207v23.098c0,1.781,0.369,3.036,1.107,3.762
		c0.738,0.727,1.717,1.09,2.936,1.09c0.609,0,1.295-0.053,2.057-0.158c0.761-0.105,1.4-0.216,1.916-0.334l0.949,4.746
		c-0.656,0.422-1.617,0.768-2.883,1.037c-1.266,0.269-2.531,0.404-3.797,0.404c-2.812,0-5.051-0.849-6.715-2.549
		c-1.665-1.699-2.496-4.365-2.496-7.998V33.148h-6.012v-5.133h6.012V18.84H135.451z"/>
	<path fill="#B64326" d="M174.545,66.055c-0.211-1.031-0.375-1.957-0.492-2.777c-0.117-0.82-0.199-1.64-0.246-2.461
		c-1.336,1.711-3.006,3.135-5.01,4.271c-2.004,1.137-4.143,1.705-6.416,1.705c-3.961,0-6.973-0.967-9.035-2.9
		c-2.062-1.934-3.094-4.658-3.094-8.174c0-3.609,1.459-6.393,4.377-8.35c2.918-1.957,6.92-2.936,12.006-2.936h7.137v-4.43
		c0-2.227-0.703-3.99-2.109-5.291s-3.363-1.951-5.871-1.951c-1.734,0-3.264,0.223-4.588,0.668c-1.324,0.445-2.396,1.055-3.217,1.828
		l-0.738,4.008h-5.344v-7.383c1.734-1.383,3.832-2.49,6.293-3.322c2.461-0.832,5.133-1.248,8.016-1.248
		c4.312,0,7.805,1.102,10.477,3.305c2.672,2.203,4.008,5.356,4.008,9.457v18.316c0,0.492,0.006,0.973,0.018,1.441
		c0.012,0.469,0.041,0.938,0.088,1.406l2.812,0.387v4.43H174.545z M163.4,60.992c2.297,0,4.395-0.55,6.293-1.652
		c1.898-1.102,3.258-2.426,4.078-3.973v-6.258h-7.383c-2.836,0-5.08,0.656-6.732,1.969c-1.652,1.313-2.479,2.906-2.479,4.781
		c0,1.665,0.516,2.936,1.547,3.814S161.314,60.992,163.4,60.992z"/>
	<path fill="#B64326" d="M206.467,61.379c2.297,0,4.318-0.708,6.064-2.127c1.746-1.418,2.619-3.158,2.619-5.221h6.223l0.07,0.211
		c0.117,3.282-1.342,6.193-4.377,8.736c-3.035,2.543-6.568,3.814-10.6,3.814c-5.531,0-9.756-1.805-12.674-5.414
		c-2.918-3.609-4.377-8.144-4.377-13.605v-1.477c0-5.414,1.465-9.932,4.395-13.553s7.148-5.432,12.656-5.432
		c3.047,0,5.783,0.504,8.209,1.512c2.426,1.008,4.436,2.391,6.029,4.148l0.316,8.438h-5.52l-1.512-5.977
		c-0.82-0.796-1.875-1.441-3.164-1.934s-2.742-0.738-4.359-0.738c-3.633,0-6.229,1.307-7.787,3.92
		c-1.559,2.614-2.338,5.818-2.338,9.615v1.477c0,3.891,0.773,7.131,2.32,9.721C200.209,60.084,202.81,61.379,206.467,61.379z"/>
	<path fill="#B64326" d="M227.244,61.625l5.73-0.984V16.66l-5.73-0.984v-4.465H239.9v21.867c1.312-1.828,2.918-3.246,4.816-4.254
		c1.898-1.007,4.008-1.512,6.328-1.512c4.078,0,7.242,1.219,9.492,3.656c2.25,2.438,3.375,6.188,3.375,11.25v18.422l5.73,0.984v4.43
		h-18.387v-4.43l5.73-0.984V42.148c0-3.141-0.674-5.461-2.021-6.961c-1.348-1.5-3.357-2.25-6.029-2.25
		c-1.898,0-3.627,0.452-5.186,1.354c-1.559,0.902-2.842,2.127-3.85,3.674v22.676l5.73,0.984v4.43h-18.387V61.625z"/>
	<path fill="#B64326" d="M291.685,66.793c-5.297,0-9.51-1.763-12.639-5.291c-3.129-3.527-4.693-8.104-4.693-13.729v-1.547
		c0-5.414,1.611-9.919,4.834-13.518c3.223-3.598,7.037-5.396,11.443-5.396c5.109,0,8.982,1.547,11.619,4.641
		s3.955,7.219,3.955,12.375v4.324h-24.68l-0.105,0.176c0.07,3.656,0.996,6.662,2.777,9.018s4.277,3.533,7.488,3.533
		c2.344,0,4.4-0.334,6.17-1.002s3.299-1.587,4.588-2.76l2.707,4.5c-1.359,1.313-3.158,2.42-5.396,3.322
		S294.826,66.793,291.685,66.793z M290.631,32.762c-2.32,0-4.301,0.979-5.941,2.936c-1.641,1.957-2.648,4.412-3.023,7.365
		l0.07,0.176h17.543v-0.914c0-2.719-0.727-4.992-2.18-6.82S293.49,32.762,290.631,32.762z"/>
</g>
<g>
	<path fill="#B64326" d="M85.682,125.435c-5.273,0-9.814,1.758-13.623,5.273s-6.104,8.561-6.885,15.137h-4.688
		c0.065-9.18,1.758-16.977,5.078-23.389c3.32-6.413,7.536-11.215,12.646-14.404c5.112-3.19,10.271-4.785,15.479-4.785
		c3.125,0,8.53,0.96,16.211,2.881c7.681,1.92,13.477,2.881,17.383,2.881c5.859,0,10.872-1.726,15.039-5.176
		c4.166-3.451,6.771-8.529,7.812-15.234h6.641c0.65,4.427,2.051,8.17,4.199,11.23c2.148,3.06,4.785,5.354,7.91,6.885
		c3.125,1.529,6.673,2.295,10.645,2.295c2.278,0,4.996-0.293,8.154-0.879c3.157-0.586,6.607-1.352,10.352-2.295
		c3.743-0.944,6.641-1.611,8.691-2.002s3.987-0.586,5.811-0.586c5.664,0,11.084,1.611,16.26,4.834s9.391,8.089,12.646,14.6
		c3.255,6.51,4.883,14.225,4.883,23.145h-4.59c-0.781-6.641-3.076-11.703-6.885-15.186c-3.809-3.483-8.317-5.225-13.525-5.225
		c-2.67,0-5.697,0.325-9.082,0.977c-3.386,0.65-6.462,1.302-9.229,1.953c-2.768,0.65-5.273,1.188-7.52,1.611
		c-2.246,0.423-4.443,0.635-6.592,0.635c-6.967,0-13.232-2.051-18.799-6.152s-9.555-9.05-11.963-14.844
		c-1.172-2.93-2.084-5.144-2.734-6.641c-0.651-1.498-1.14-2.751-1.465-3.76c-0.326-1.01-0.456-1.807-0.391-2.393
		c-3.386,11.002-7.895,19.385-13.525,25.146c-5.632,5.762-12.939,8.643-21.924,8.643c-2.148,0-4.265-0.195-6.348-0.586
		c-2.084-0.391-5.371-1.091-9.863-2.1c-4.492-1.01-7.649-1.677-9.473-2.002C90.598,125.597,88.352,125.435,85.682,125.435z
		 M124.549,118.404c3.255,0,6.299-0.586,9.131-1.758s5.452-2.946,7.861-5.322c2.408-2.377,4.395-5.258,5.957-8.643
		c-4.558,6.38-11.362,9.57-20.41,9.57c-2.539,0-5.469-0.293-8.789-0.879s-6.25-1.221-8.789-1.904s-5.322-1.367-8.35-2.051
		s-5.452-1.025-7.275-1.025c-6.38,0-12.256,2.408-17.627,7.227c-5.371,4.817-9.229,12.076-11.572,21.777
		c7.031-14.779,16.992-22.168,29.883-22.168c2.28,0,4.135,0.146,5.566,0.439c1.433,0.293,4.135,0.943,8.105,1.953
		c3.97,1.009,7.063,1.725,9.277,2.148C119.73,118.192,122.074,118.404,124.549,118.404z M212.342,113.228
		c13.021,0,22.949,7.389,29.785,22.168c-1.498-6.381-3.744-11.784-6.738-16.211c-2.995-4.428-6.445-7.666-10.352-9.717
		s-7.943-3.076-12.109-3.076c-1.693,0-3.923,0.309-6.689,0.928c-2.768,0.618-5.551,1.302-8.35,2.051
		c-2.8,0.748-5.844,1.416-9.131,2.002c-3.288,0.586-6.234,0.879-8.838,0.879c-4.297,0-8.252-0.83-11.865-2.49
		s-6.527-4.021-8.74-7.08c2.408,5.143,5.615,9.049,9.619,11.719c4.004,2.669,8.479,4.004,13.428,4.004
		c2.408,0,4.785-0.229,7.129-0.684c2.344-0.456,4.752-1.01,7.227-1.66c2.474-0.651,5.159-1.286,8.057-1.904
		C207.67,113.537,210.193,113.228,212.342,113.228z"/>
</g>
</svg>
